<svg width="149" height="34" viewBox="0 0 149 34" fill="none" xmlns="http://www.w3.org/2000/svg">
<path fill-rule="evenodd" clip-rule="evenodd" d="M8.45606 4.29925C8.81668 3.67269 9.31844 3.1399 9.92105 2.74392L14.2169 0.282276C15.3563 -0.379827 16.2931 0.163396 16.2931 1.4876V15.4088C16.2931 16.7331 15.3563 17.2763 14.2169 16.6142L9.92105 14.0677C9.31844 13.6717 8.81668 13.139 8.45606 12.5124C8.0955 11.8858 7.8861 11.1828 7.84482 10.46V6.35157C7.8861 5.62876 8.0955 4.92581 8.45606 4.29925ZM7.46164 14.4828C8.16061 14.4828 8.84981 14.6456 9.47353 14.958L13.653 17.3282C14.7594 17.9614 14.7594 18.9924 13.653 19.6255L2.016 26.2818C0.909699 26.9149 0 26.3954 0 25.1291V20.356C0.040069 19.6649 0.243371 18.9927 0.593492 18.3935C0.943673 17.7943 1.4309 17.2849 2.016 16.9062L5.44974 14.958C6.07346 14.6456 6.76266 14.4828 7.46164 14.4828ZM25.079 2.74392C25.6816 3.1399 26.1834 3.67269 26.544 4.29925C26.9046 4.92581 27.114 5.62876 27.1552 6.35157V10.46C27.114 11.1828 26.9046 11.8858 26.544 12.5124C26.1834 13.139 25.6816 13.6717 25.079 14.0677L20.7747 16.6142C19.6353 17.2763 18.7069 16.7331 18.7069 15.4088V1.4876C18.7069 0.163396 19.6353 -0.379827 20.7747 0.282276L25.079 2.74392ZM27.2316 14.4828C26.5032 14.4828 25.7849 14.6456 25.1348 14.958L20.7787 17.3282C19.6255 17.9614 19.6255 18.9924 20.7787 19.6255L32.9074 26.2818C34.0604 26.9149 35 26.3954 35 25.1291V20.356C34.9599 19.6655 34.7496 18.9935 34.3861 18.3942C34.0227 17.795 33.5161 17.2853 32.9074 16.9062L29.3286 14.958C28.6785 14.6456 27.9601 14.4828 27.2316 14.4828ZM7.42591 32.715C8.05 33.0271 8.73956 33.1896 9.43889 33.1896C10.1383 33.1896 10.8278 33.0271 11.4519 32.715L14.8877 30.7614C15.4722 30.381 15.9584 29.8705 16.3073 29.2708C16.6562 28.671 16.858 27.9988 16.8965 27.308V22.5414C16.8965 21.2767 15.9946 20.7579 14.8877 21.3902L3.24402 28.0376C2.13705 28.6699 2.13705 29.6994 3.24402 30.3317L7.42591 32.715ZM18.1148 29.2693C17.7514 28.6714 17.5409 28.001 17.5 27.3119V22.5404C17.5 21.2767 18.4396 20.7582 19.5927 21.39L31.7214 28.0329C32.8745 28.6648 32.8745 29.6937 31.7214 30.3255L27.3653 32.7153C26.7152 33.0272 25.9969 33.1896 25.2685 33.1896C24.5399 33.1896 23.8216 33.0272 23.1715 32.7153L19.5927 30.7549C18.9844 30.376 18.4783 29.8673 18.1148 29.2693Z" fill="black"/>
<path d="M48.968 26L48.184 21.744H43.872L43.116 26H38.748L43.452 6.596H48.716L53.42 26H48.968ZM44.46 18.58H47.624L46.028 9.816L44.46 18.58ZM58.0081 26.476C56.8321 26.476 55.9174 26.1307 55.2641 25.44C54.6107 24.7493 54.2841 23.8067 54.2841 22.612V5.224L58.5121 4.776V22.416C58.5121 22.8827 58.7081 23.116 59.1001 23.116C59.2121 23.116 59.3801 23.088 59.6041 23.032L60.3601 25.944C60.0614 26.0933 59.7067 26.2147 59.2961 26.308C58.8854 26.42 58.4561 26.476 58.0081 26.476ZM73.1534 11.972C72.4628 12.3453 71.3054 12.532 69.6814 12.532C70.5028 12.9053 71.1094 13.4093 71.5014 14.044C71.8934 14.66 72.0894 15.444 72.0894 16.396C72.0894 17.8707 71.6041 19.0653 70.6334 19.98C69.6814 20.8947 68.3748 21.352 66.7134 21.352C66.1908 21.352 65.7428 21.296 65.3694 21.184C65.0708 21.3893 64.9214 21.7067 64.9214 22.136C64.9214 22.4533 65.0148 22.696 65.2014 22.864C65.4068 23.032 65.7708 23.116 66.2934 23.116H67.8054C69.4108 23.116 70.6614 23.508 71.5574 24.292C72.4721 25.076 72.9294 26.084 72.9294 27.316C72.9294 28.7907 72.3508 29.9667 71.1934 30.844C70.0548 31.74 68.4214 32.188 66.2934 32.188C63.9974 32.188 62.4108 31.7867 61.5334 30.984C60.6561 30.1813 60.2174 28.996 60.2174 27.428H63.9694C63.9694 28.1373 64.1281 28.6413 64.4454 28.94C64.7814 29.2573 65.4068 29.416 66.3214 29.416C67.9268 29.416 68.7294 28.8187 68.7294 27.624C68.7294 27.0827 68.5708 26.672 68.2534 26.392C67.9548 26.1307 67.4881 26 66.8534 26H65.7334C64.2588 26 63.1854 25.748 62.5134 25.244C61.8414 24.7213 61.5054 24.012 61.5054 23.116C61.5054 22.5747 61.6454 22.0707 61.9254 21.604C62.2054 21.1187 62.5881 20.708 63.0734 20.372C62.2708 19.868 61.6828 19.28 61.3094 18.608C60.9548 17.936 60.7774 17.096 60.7774 16.088C60.7774 14.408 61.2908 13.092 62.3174 12.14C63.3441 11.188 64.7441 10.712 66.5174 10.712C67.6934 10.712 68.6828 10.5627 69.4854 10.264C70.3068 9.96533 71.1841 9.52667 72.1174 8.948L73.1534 11.972ZM66.5454 13.456C66.0041 13.456 65.5934 13.6613 65.3134 14.072C65.0521 14.464 64.9214 15.1173 64.9214 16.032C64.9214 17.768 65.4534 18.636 66.5174 18.636C67.0401 18.636 67.4321 18.44 67.6934 18.048C67.9548 17.656 68.0854 16.9653 68.0854 15.976C68.0854 15.08 67.9548 14.436 67.6934 14.044C67.4508 13.652 67.0681 13.456 66.5454 13.456ZM79.2754 10.656C81.2167 10.656 82.7287 11.3187 83.8114 12.644C84.9127 13.9693 85.4634 15.948 85.4634 18.58C85.4634 21.1 84.9127 23.0507 83.8114 24.432C82.7287 25.7947 81.2167 26.476 79.2754 26.476C77.334 26.476 75.8127 25.8133 74.7114 24.488C73.6287 23.144 73.0874 21.1653 73.0874 18.552C73.0874 15.9947 73.6287 14.044 74.7114 12.7C75.8127 11.3373 77.334 10.656 79.2754 10.656ZM79.2754 13.792C78.622 13.792 78.146 14.156 77.8474 14.884C77.5674 15.5933 77.4274 16.816 77.4274 18.552C77.4274 20.344 77.5674 21.5947 77.8474 22.304C78.146 23.0133 78.622 23.368 79.2754 23.368C79.9287 23.368 80.3954 23.0133 80.6754 22.304C80.974 21.576 81.1234 20.3347 81.1234 18.58C81.1234 16.8067 80.974 15.5653 80.6754 14.856C80.3954 14.1467 79.9287 13.792 79.2754 13.792ZM96.1633 26L95.3793 21.744H91.0673L90.3113 26H85.9433L90.6473 6.596H95.9113L100.615 26H96.1633ZM91.6553 18.58H94.8193L93.2233 9.816L91.6553 18.58ZM108.815 10.712C109.207 10.712 109.599 10.7867 109.991 10.936L109.291 14.996C108.955 14.884 108.61 14.828 108.255 14.828C107.565 14.828 107.042 15.0987 106.687 15.64C106.351 16.1627 106.071 16.956 105.847 18.02V26H101.619V11.132H105.287L105.595 13.568C106.305 11.664 107.378 10.712 108.815 10.712ZM121.654 18.272C121.654 18.8693 121.626 19.3827 121.57 19.812H114.01C114.103 21.156 114.346 22.0893 114.738 22.612C115.149 23.116 115.737 23.368 116.502 23.368C117.006 23.368 117.491 23.2747 117.958 23.088C118.425 22.8827 118.929 22.5747 119.47 22.164L121.206 24.46C119.825 25.804 118.154 26.476 116.194 26.476C114.103 26.476 112.517 25.7947 111.434 24.432C110.351 23.0507 109.81 21.128 109.81 18.664C109.81 16.2 110.323 14.2493 111.35 12.812C112.395 11.3747 113.879 10.656 115.802 10.656C117.631 10.656 119.059 11.3093 120.086 12.616C121.131 13.904 121.654 15.7893 121.654 18.272ZM117.538 17.068C117.538 15.7987 117.407 14.884 117.146 14.324C116.903 13.7453 116.465 13.456 115.83 13.456C115.27 13.456 114.841 13.736 114.542 14.296C114.262 14.8373 114.085 15.8267 114.01 17.264H117.538V17.068ZM131.11 10.656C132.174 10.656 133.005 11.0387 133.602 11.804C134.218 12.5693 134.526 13.596 134.526 14.884V26H130.298V15.332C130.298 14.3613 130.028 13.876 129.486 13.876C128.945 13.876 128.357 14.4733 127.722 15.668V26H123.494V11.132H127.162L127.47 12.896C127.956 12.1493 128.488 11.5893 129.066 11.216C129.645 10.8427 130.326 10.656 131.11 10.656ZM147.168 22.052C147.168 22.5187 147.224 22.864 147.336 23.088C147.448 23.312 147.644 23.4893 147.924 23.62L147.056 26.392C146.253 26.3173 145.59 26.1307 145.068 25.832C144.564 25.5147 144.172 25.0293 143.892 24.376C143.033 25.776 141.81 26.476 140.224 26.476C138.992 26.476 138.012 26.056 137.284 25.216C136.556 24.3573 136.192 23.228 136.192 21.828C136.192 20.204 136.696 18.972 137.704 18.132C138.712 17.2733 140.186 16.844 142.128 16.844H143.024V16.06C143.024 15.164 142.884 14.548 142.604 14.212C142.342 13.8573 141.866 13.68 141.176 13.68C140.317 13.68 139.253 13.932 137.984 14.436L137.032 11.748C137.797 11.3933 138.609 11.1227 139.468 10.936C140.345 10.7493 141.176 10.656 141.96 10.656C143.714 10.656 145.021 11.0853 145.88 11.944C146.738 12.784 147.168 14.0813 147.168 15.836V22.052ZM141.512 23.48C141.829 23.48 142.118 23.3587 142.38 23.116C142.641 22.8733 142.856 22.528 143.024 22.08V19.196H142.52C141.754 19.196 141.194 19.3827 140.84 19.756C140.504 20.1107 140.336 20.68 140.336 21.464C140.336 22.1173 140.438 22.6213 140.644 22.976C140.849 23.312 141.138 23.48 141.512 23.48Z" fill="black"/>
</svg>
